<svg xmlns="http://www.w3.org/2000/svg" xmlns:xlink="http://www.w3.org/1999/xlink" version="1.1" id="Layer_1" x="0px" y="0px" width="100%" viewBox="0 0 1470 2228" enable-background="" xml:space="preserve" fill="#000">
<path fill="transparent" opacity="1.000000" stroke="none" d=" M0.999996,1141.000000   C1.000000,761.083740 1.000000,381.167511 1.000000,1.000000   C243.695984,1.000000 486.392059,1.000000 729.676147,1.352348   C728.755493,3.298177 726.954285,4.702791 725.784302,6.514902   C716.237244,21.301750 706.795227,36.156586 697.346008,51.006470   C683.393738,72.932762 669.510132,94.902878 655.508545,116.797554   C639.678162,141.552017 623.675476,166.196426 607.883423,190.975159   C589.662903,219.564240 571.607544,248.258469 553.448425,276.886810   C539.527588,298.833374 525.574463,320.759552 511.604279,342.674744   C494.506989,369.495392 477.369446,396.290375 460.263611,423.105591   C448.023407,442.293396 435.801819,461.493042 423.580780,480.693054   C407.195190,506.435822 390.828339,532.190491 374.434418,557.927979   C359.777527,580.938354 345.095062,603.932556 330.423462,626.933655   C315.750946,649.936157 301.065643,672.930481 286.408630,695.942871   C272.446747,717.863892 258.564606,739.835876 244.555313,761.726562   C228.715622,786.477356 212.689911,811.109314 196.897385,835.890076   C178.679077,864.477234 160.642807,893.180420 142.497086,921.813904   C130.918839,940.084106 119.343910,958.356873 107.663254,976.561584   C89.524506,1004.831543 71.240356,1033.008301 53.123653,1061.292236   C36.664997,1086.987671 20.359091,1112.780884 3.926058,1138.492798   C3.264007,1139.528687 1.989285,1140.173218 0.999996,1141.000000  z"/>
<path fill="transparent" opacity="1.000000" stroke="none" d=" M742.000000,1.000007   C984.946472,1.000000 1227.892944,1.000000 1471.000000,1.000000   C1471.000000,380.696045 1471.000000,760.392090 1470.647949,1140.667480   C1464.909790,1133.210693 1459.357788,1125.280029 1454.168701,1117.118408   C1438.323242,1092.197144 1422.699829,1067.134766 1406.829590,1042.229614   C1395.807129,1024.932129 1384.394043,1007.883789 1373.379395,990.581543   C1355.611572,962.671021 1338.038574,934.636536 1320.363403,906.666992   C1308.895630,888.520142 1297.465332,870.349121 1285.888184,852.272156   C1270.037354,827.522156 1253.969482,802.910950 1238.167603,778.130005   C1222.289917,753.229858 1206.707153,728.141724 1190.838013,703.236084   C1179.817261,685.939514 1168.405518,668.892090 1157.392090,651.590942   C1139.624146,623.679199 1122.051392,595.643372 1104.375488,567.672974   C1092.907959,549.526733 1081.479614,531.355042 1069.898193,513.281555   C1051.776978,485.002014 1033.436646,456.862457 1015.382568,428.540283   C997.078003,399.825195 979.043762,370.937897 960.823059,342.169159   C948.558289,322.804199 936.164001,303.521362 923.848145,284.188721   C909.796326,262.131042 895.777222,240.052582 881.725769,217.994705   C867.067505,194.984329 852.377563,171.994095 837.720093,148.983185   C823.759338,127.065971 809.964783,105.041290 795.839294,83.230911   C778.029602,55.732018 759.958374,28.402563 742.000000,1.000007  z"/>
<path fill="transparent" opacity="1.000000" stroke="none" d=" M730.000000,2229.000000   C487.059082,2229.000000 244.118195,2229.000000 1.000000,2229.000000   C1.000000,1907.637329 1.000000,1586.274536 1.349732,1264.326904   C6.588437,1270.175903 11.472892,1276.613403 16.367338,1283.043335   C27.172405,1297.238281 38.045132,1311.382202 48.772774,1325.635376   C59.371113,1339.716797 69.759865,1353.956055 80.360374,1368.036011   C91.078491,1382.271973 101.993362,1396.359619 112.731995,1410.580444   C126.685295,1429.058105 140.514709,1447.629639 154.463242,1466.110962   C166.184021,1481.640747 178.050461,1497.060547 189.756226,1512.601685   C199.386612,1525.387329 208.811737,1538.327637 218.444031,1551.111816   C230.140503,1566.635620 242.003616,1582.033936 253.713058,1597.548096   C267.662170,1616.029541 281.487488,1634.604492 295.436096,1653.086304   C307.156677,1668.615967 319.030884,1684.029907 330.736664,1699.570557   C340.367279,1712.356323 349.783905,1725.303223 359.416504,1738.087524   C371.113068,1753.610840 382.983826,1769.002930 394.692963,1784.516846   C408.641907,1802.998169 422.460266,1821.578003 436.408905,1840.059448   C448.129730,1855.589111 460.018280,1870.992188 471.715912,1886.539062   C481.240936,1899.198364 490.506073,1912.053345 500.043732,1924.703003   C512.818115,1941.645264 525.793884,1958.435669 538.592224,1975.359985   C552.657471,1993.959717 566.626526,2012.632202 580.624390,2031.282837   C591.402222,2045.643311 602.146790,2060.028809 612.930298,2074.385010   C620.322205,2084.225342 627.761780,2094.029785 635.169189,2103.858643   C646.088684,2118.347900 656.987122,2132.853271 667.915039,2147.335938   C679.520325,2162.716064 691.121094,2178.099365 702.777649,2193.440430   C711.808716,2205.326416 720.922791,2217.149170 730.000000,2229.000000  z"/>
<path fill="transparent" opacity="1.000000" stroke="none" d=" M1025.000000,2229.000000   C930.975098,2229.000000 836.950195,2229.000000 742.329834,2228.650879   C743.523621,2226.660156 745.613708,2225.245850 747.053284,2223.340088   C756.620972,2210.674805 766.020569,2197.882812 775.530640,2185.173584   C786.386719,2170.666016 797.294312,2156.196777 808.191284,2141.719727   C820.657837,2125.157471 833.105408,2108.580566 845.621094,2092.055176   C856.396912,2077.827393 867.309998,2063.703613 878.066528,2049.461182   C892.025574,2030.978271 905.889282,2012.423340 919.794373,1993.899658   C930.588867,1979.519653 941.372803,1965.131836 952.181763,1950.762695   C963.670471,1935.490356 975.154236,1920.214355 986.693054,1904.979858   C998.445618,1889.463257 1010.312012,1874.032837 1022.038879,1858.497070   C1035.978638,1840.029541 1049.781860,1821.459106 1063.720581,1802.990845   C1075.447144,1787.453857 1087.335449,1772.039062 1099.057495,1756.498901   C1113.979370,1736.716919 1128.791504,1716.852295 1143.677612,1697.043213   C1156.428223,1680.076172 1169.218018,1663.138428 1181.987305,1646.185425   C1191.633423,1633.379028 1201.247314,1620.548096 1210.925049,1607.765625   C1222.574951,1592.378174 1234.322876,1577.064941 1245.945679,1561.657104   C1260.968384,1541.742432 1275.880371,1521.744385 1290.894653,1501.823364   C1302.592651,1486.302246 1314.408447,1470.870239 1326.105957,1455.348755   C1333.697998,1445.274780 1341.112671,1435.067139 1348.711426,1424.998291   C1359.460327,1410.755127 1370.352539,1396.620239 1381.098389,1382.374878   C1394.949707,1364.012695 1408.738281,1345.603271 1422.514526,1327.184570   C1435.109009,1310.345581 1447.590942,1293.421753 1460.256958,1276.636719   C1463.581543,1272.230957 1467.405518,1268.202026 1471.000000,1264.000000   C1471.000000,1525.358276 1471.000000,1786.716431 1470.531372,2048.537354   C1321.752686,2049.000000 1173.442627,2049.000000 1025.000000,2049.000000   C1025.000000,2109.440430 1025.000000,2169.220215 1025.000000,2229.000000  z"/>
<path fill="#3643C1" opacity="1.000000" stroke="none" d=" M741.539368,1.000007   C759.958374,28.402563 778.029602,55.732018 795.839294,83.230911   C809.964783,105.041290 823.759338,127.065971 837.720093,148.983185   C852.377563,171.994095 867.067505,194.984329 881.725769,217.994705   C895.777222,240.052582 909.796326,262.131042 923.848145,284.188721   C936.164001,303.521362 948.558289,322.804199 960.823059,342.169159   C979.043762,370.937897 997.078003,399.825195 1015.382568,428.540283   C1033.436646,456.862457 1051.776978,485.002014 1069.898193,513.281555   C1081.479614,531.355042 1092.907959,549.526733 1104.375488,567.672974   C1122.051392,595.643372 1139.624146,623.679199 1157.392090,651.590942   C1168.405518,668.892090 1179.817261,685.939514 1190.838013,703.236084   C1206.707153,728.141724 1222.289917,753.229858 1238.167603,778.130005   C1253.969482,802.910950 1270.037354,827.522156 1285.888184,852.272156   C1297.465332,870.349121 1308.895630,888.520142 1320.363403,906.666992   C1338.038574,934.636536 1355.611572,962.671021 1373.379395,990.581543   C1384.394043,1007.883789 1395.807129,1024.932129 1406.829590,1042.229614   C1422.699829,1067.134766 1438.323242,1092.197144 1454.168701,1117.118408   C1459.357788,1125.280029 1464.909790,1133.210693 1470.647949,1141.123535   C1471.000000,1145.024536 1471.000000,1149.049072 1470.657104,1153.410156   C1460.015259,1160.192505 1449.849243,1166.864380 1439.380371,1173.021362   C1428.506226,1179.416626 1417.291260,1185.228760 1406.312744,1191.450195   C1392.962402,1199.016113 1379.728027,1206.786377 1366.398071,1214.388428   C1353.322876,1221.845337 1340.165161,1229.157959 1327.090088,1236.615356   C1313.460205,1244.389038 1299.894043,1252.274414 1286.284424,1260.083618   C1273.248779,1267.563354 1260.208496,1275.035278 1247.141846,1282.460449   C1233.785889,1290.050171 1220.401733,1297.590576 1207.017700,1305.131104   C1196.016479,1311.328979 1184.966797,1317.441406 1173.994507,1323.689941   C1160.942871,1331.122681 1147.978882,1338.709473 1134.925293,1346.138794   C1121.703491,1353.663818 1108.386230,1361.020752 1095.170654,1368.556519   C1081.538086,1376.330078 1067.993530,1384.257446 1054.381592,1392.067139   C1041.347168,1399.545288 1028.283081,1406.972046 1015.217896,1414.396606   C1001.860168,1421.987427 988.498718,1429.571899 975.113647,1437.114502   C964.113953,1443.312988 953.038025,1449.376831 942.067200,1455.625732   C929.014587,1463.060425 916.067505,1470.680420 903.019714,1478.124023   C892.051941,1484.380981 880.978516,1490.452759 869.999695,1496.690552   C853.972717,1505.796509 837.983948,1514.969727 821.987610,1524.129517   C809.082642,1531.519165 796.201660,1538.951050 783.289307,1546.328003   C770.088745,1553.869873 756.861511,1561.365356 743.648926,1568.886353   C738.502075,1571.816040 733.388123,1571.811646 728.245605,1568.841675   C725.165222,1567.062622 722.005615,1565.421021 718.922485,1563.646606   C703.073242,1554.525635 687.266113,1545.331177 671.387878,1536.260864   C657.907776,1528.560669 644.340271,1521.013428 630.831055,1513.363770   C617.752136,1505.957642 604.709839,1498.486816 591.629578,1491.083130   C580.773682,1484.938354 569.856445,1478.901611 559.020020,1472.722778   C545.686584,1465.120361 532.432068,1457.379395 519.099609,1449.775146   C508.409027,1443.677734 497.617035,1437.757935 486.934235,1431.647095   C471.061920,1422.567749 455.275330,1413.338501 439.397675,1404.268555   C425.917877,1396.568115 412.349731,1389.022583 398.841156,1381.372314   C385.762054,1373.965088 372.721466,1366.490112 359.640778,1359.085815   C348.785187,1352.940674 337.865967,1346.907471 327.029175,1340.729614   C313.695160,1333.127930 300.440887,1325.386353 287.108002,1317.782593   C276.416962,1311.685425 265.623718,1305.767090 254.940720,1299.655884   C239.068848,1290.576294 223.283325,1281.345459 207.406235,1272.275146   C193.926559,1264.574341 180.357727,1257.029785 166.849640,1249.378662   C153.770706,1241.970825 140.731857,1234.492310 127.651222,1227.087524   C116.796158,1220.942871 105.875633,1214.913208 95.039101,1208.736206   C81.704597,1201.135376 68.423325,1193.440918 55.126057,1185.774780   C44.049309,1179.388794 32.956207,1173.030640 21.921188,1166.573242   C14.899461,1162.464233 7.970550,1158.196533 1.000012,1154.000000   C1.000000,1149.975464 1.000000,1145.950928 0.999996,1141.463135   C1.989285,1140.173218 3.264007,1139.528687 3.926058,1138.492798   C20.359091,1112.780884 36.664997,1086.987671 53.123653,1061.292236   C71.240356,1033.008301 89.524506,1004.831543 107.663254,976.561584   C119.343910,958.356873 130.918839,940.084106 142.497086,921.813904   C160.642807,893.180420 178.679077,864.477234 196.897385,835.890076   C212.689911,811.109314 228.715622,786.477356 244.555313,761.726562   C258.564606,739.835876 272.446747,717.863892 286.408630,695.942871   C301.065643,672.930481 315.750946,649.936157 330.423462,626.933655   C345.095062,603.932556 359.777527,580.938354 374.434418,557.927979   C390.828339,532.190491 407.195190,506.435822 423.580780,480.693054   C435.801819,461.493042 448.023407,442.293396 460.263611,423.105591   C477.369446,396.290375 494.506989,369.495392 511.604279,342.674744   C525.574463,320.759552 539.527588,298.833374 553.448425,276.886810   C571.607544,248.258469 589.662903,219.564240 607.883423,190.975159   C623.675476,166.196426 639.678162,141.552017 655.508545,116.797554   C669.510132,94.902878 683.393738,72.932762 697.346008,51.006470   C706.795227,36.156586 716.237244,21.301750 725.784302,6.514902   C726.954285,4.702791 728.755493,3.298177 730.132080,1.352348   C733.692932,1.000000 737.385803,1.000000 741.539368,1.000007  M722.837585,58.319763   C722.549377,58.529766 722.261169,58.739769 721.705688,59.582859   C497.038940,412.143707 272.372162,764.704529 46.881897,1118.557739   C49.411999,1117.636963 50.463253,1117.324707 51.456875,1116.882690   C138.875320,1077.998169 226.281693,1039.086548 313.705383,1000.213684   C448.262421,940.383118 582.820068,880.553833 717.442993,820.871765   C721.977173,818.861572 723.319092,816.497742 723.316467,811.621460   C723.181946,562.633423 723.198364,313.645355 723.194153,64.657265   C723.194092,62.658436 723.134827,60.659607 722.837585,58.319763  M748.358398,59.145615   C748.346069,60.978699 748.322998,62.811783 748.322998,64.644867   C748.321411,313.468109 748.343567,562.291382 748.176025,811.114502   C748.172363,816.556091 750.065002,818.850342 754.738037,820.920776   C849.818054,863.046265 944.831482,905.321899 1039.854492,947.575989   C1166.807129,1004.028259 1293.756226,1060.488403 1420.713745,1116.929688   C1421.691772,1117.364380 1422.765991,1117.582764 1424.851807,1118.229858   C1422.979370,1115.225708 1421.702637,1113.136597 1420.387207,1111.072266   C1328.927856,967.539917 1237.467041,824.008423 1146.002563,680.479248   C1015.070557,475.016174 884.136902,269.554230 753.186523,64.102890   C751.869812,62.037205 750.316223,60.122574 748.835632,57.702763   C748.705994,57.884132 748.576416,58.065502 748.358398,59.145615  M1148.929565,1023.523315   C1121.899170,1011.501465 1094.870483,999.475891 1067.838135,987.458435   C972.003052,944.854309 876.166870,902.252686 780.330750,859.650879   C770.042847,855.077637 759.753113,850.508606 748.845398,845.662720   C748.845398,1076.106567 748.845398,1305.879883 748.845398,1536.622559   C976.380188,1407.160522 1203.056885,1278.186768 1430.535156,1148.756836   C1336.280518,1106.854980 1242.944336,1065.361450 1148.929565,1023.523315  M154.887711,1098.402832   C117.410828,1115.041870 79.933937,1131.680786 41.486885,1148.750488   C268.983246,1278.187988 495.650970,1407.153931 722.879272,1536.438965   C722.879272,1305.723022 722.879272,1076.139771 722.879272,846.192932   C721.658569,846.548340 720.699036,846.712891 719.836548,847.096008   C707.223328,852.698669 694.626221,858.337585 682.019104,863.953918   C641.767517,881.885437 601.521301,899.829407 561.257935,917.734497   C510.510925,940.301636 459.743011,962.821594 408.995453,985.387451   C372.075684,1001.804565 335.182648,1018.281677 298.262817,1034.698730   C250.708984,1055.844360 203.140305,1076.956665 154.887711,1098.402832  z"/>
<path fill="transparent" opacity="1.000000" stroke="none" d=" M1.000012,1154.468628   C7.970550,1158.196533 14.899461,1162.464233 21.921188,1166.573242   C32.956207,1173.030640 44.049309,1179.388794 55.126057,1185.774780   C68.423325,1193.440918 81.704597,1201.135376 95.039101,1208.736206   C105.875633,1214.913208 116.796158,1220.942871 127.651222,1227.087524   C140.731857,1234.492310 153.770706,1241.970825 166.849640,1249.378662   C180.357727,1257.029785 193.926559,1264.574341 207.406235,1272.275146   C223.283325,1281.345459 239.068848,1290.576294 254.940720,1299.655884   C265.623718,1305.767090 276.416962,1311.685425 287.108002,1317.782593   C300.440887,1325.386353 313.695160,1333.127930 327.029175,1340.729614   C337.865967,1346.907471 348.785187,1352.940674 359.640778,1359.085815   C372.721466,1366.490112 385.762054,1373.965088 398.841156,1381.372314   C412.349731,1389.022583 425.917877,1396.568115 439.397675,1404.268555   C455.275330,1413.338501 471.061920,1422.567749 486.934235,1431.647095   C497.617035,1437.757935 508.409027,1443.677734 519.099609,1449.775146   C532.432068,1457.379395 545.686584,1465.120361 559.020020,1472.722778   C569.856445,1478.901611 580.773682,1484.938354 591.629578,1491.083130   C604.709839,1498.486816 617.752136,1505.957642 630.831055,1513.363770   C644.340271,1521.013428 657.907776,1528.560669 671.387878,1536.260864   C687.266113,1545.331177 703.073242,1554.525635 718.922485,1563.646606   C722.005615,1565.421021 725.165222,1567.062622 728.245605,1568.841675   C733.388123,1571.811646 738.502075,1571.816040 743.648926,1568.886353   C756.861511,1561.365356 770.088745,1553.869873 783.289307,1546.328003   C796.201660,1538.951050 809.082642,1531.519165 821.987610,1524.129517   C837.983948,1514.969727 853.972717,1505.796509 869.999695,1496.690552   C880.978516,1490.452759 892.051941,1484.380981 903.019714,1478.124023   C916.067505,1470.680420 929.014587,1463.060425 942.067200,1455.625732   C953.038025,1449.376831 964.113953,1443.312988 975.113647,1437.114502   C988.498718,1429.571899 1001.860168,1421.987427 1015.217896,1414.396606   C1028.283081,1406.972046 1041.347168,1399.545288 1054.381592,1392.067139   C1067.993530,1384.257446 1081.538086,1376.330078 1095.170654,1368.556519   C1108.386230,1361.020752 1121.703491,1353.663818 1134.925293,1346.138794   C1147.978882,1338.709473 1160.942871,1331.122681 1173.994507,1323.689941   C1184.966797,1317.441406 1196.016479,1311.328979 1207.017700,1305.131104   C1220.401733,1297.590576 1233.785889,1290.050171 1247.141846,1282.460449   C1260.208496,1275.035278 1273.248779,1267.563354 1286.284424,1260.083618   C1299.894043,1252.274414 1313.460205,1244.389038 1327.090088,1236.615356   C1340.165161,1229.157959 1353.322876,1221.845337 1366.398071,1214.388428   C1379.728027,1206.786377 1392.962402,1199.016113 1406.312744,1191.450195   C1417.291260,1185.228760 1428.506226,1179.416626 1439.380371,1173.021362   C1449.849243,1166.864380 1460.015259,1160.192505 1470.657104,1153.873291   C1471.000000,1186.354248 1471.000000,1218.708496 1470.655518,1251.660522   C1469.534058,1251.633667 1468.712402,1251.056519 1467.986938,1250.376831   C1461.953491,1244.724365 1456.928711,1244.329468 1449.592651,1248.624512   C1437.030396,1255.979492 1424.407349,1263.231445 1411.783081,1270.480103   C1400.156250,1277.156250 1388.448120,1283.691772 1376.859985,1290.434082   C1363.596802,1298.150635 1350.442871,1306.054810 1337.211548,1313.826416   C1323.830688,1321.686035 1310.421509,1329.497925 1297.009399,1337.304321   C1284.305420,1344.698853 1271.600464,1352.092163 1258.860352,1359.424194   C1247.220459,1366.123169 1235.486816,1372.660278 1223.878662,1379.413330   C1210.756104,1387.047485 1197.744629,1394.872681 1184.652832,1402.559814   C1171.149536,1410.488525 1157.611206,1418.357300 1144.081909,1426.241577   C1131.219238,1433.737305 1118.374390,1441.264038 1105.473145,1448.693115   C1093.978027,1455.312378 1082.361084,1461.721436 1070.897461,1468.394287   C1053.871704,1478.305298 1036.976929,1488.441162 1019.945679,1498.342407   C1004.427734,1507.364014 988.749817,1516.110596 973.238220,1525.143066   C956.354187,1534.974487 939.636536,1545.091553 922.744629,1554.909058   C903.036926,1566.363281 883.169861,1577.543213 863.462952,1588.998657   C844.194702,1600.199341 825.048279,1611.609375 805.834839,1622.904663   C786.042053,1634.540405 766.098267,1645.927734 746.500916,1657.883301   C739.184692,1662.346680 732.736511,1664.660034 726.080811,1657.371216   C725.784973,1657.047241 725.174072,1657.034180 724.757080,1656.794312   C705.011230,1645.442261 685.234863,1634.142456 665.539917,1622.702759   C647.517822,1612.234863 629.586304,1601.611206 611.610962,1591.062866   C600.473206,1584.526978 589.355103,1577.957031 578.178772,1571.487671   C565.044678,1563.885254 551.842651,1556.400146 538.697205,1548.817261   C527.355957,1542.275024 516.036438,1535.694946 504.736786,1529.081055   C491.778534,1521.496460 478.895569,1513.782104 465.901703,1506.259277   C450.384552,1497.275513 434.735382,1488.519409 419.233124,1479.510376   C399.826904,1468.232544 380.546997,1456.737549 361.146973,1445.448975   C343.976196,1435.457642 326.670593,1425.697754 309.506317,1415.695435   C289.826202,1404.227173 270.272369,1392.542114 250.594147,1381.070557   C237.622391,1373.508545 224.481354,1366.237183 211.501099,1358.689575   C198.380722,1351.060791 185.413544,1343.168579 172.291092,1335.543457   C156.644272,1326.451660 140.858505,1317.598633 125.215225,1308.500732   C105.812096,1297.216187 86.512871,1285.753052 67.131691,1274.430542   C52.069397,1265.630859 36.970589,1256.893066 21.847126,1248.198975   C15.515339,1244.559082 8.078346,1244.408203 3.158765,1251.232056   C2.633120,1251.961182 1.728720,1252.417236 0.999992,1253.000000   C1.000000,1220.312378 1.000000,1187.624878 1.000012,1154.468628  z"/>
<path fill="#3744C1" opacity="1.000000" stroke="none" d=" M0.999992,1253.458008   C1.728720,1252.417236 2.633120,1251.961182 3.158765,1251.232056   C8.078346,1244.408203 15.515339,1244.559082 21.847126,1248.198975   C36.970589,1256.893066 52.069397,1265.630859 67.131691,1274.430542   C86.512871,1285.753052 105.812096,1297.216187 125.215225,1308.500732   C140.858505,1317.598633 156.644272,1326.451660 172.291092,1335.543457   C185.413544,1343.168579 198.380722,1351.060791 211.501099,1358.689575   C224.481354,1366.237183 237.622391,1373.508545 250.594147,1381.070557   C270.272369,1392.542114 289.826202,1404.227173 309.506317,1415.695435   C326.670593,1425.697754 343.976196,1435.457642 361.146973,1445.448975   C380.546997,1456.737549 399.826904,1468.232544 419.233124,1479.510376   C434.735382,1488.519409 450.384552,1497.275513 465.901703,1506.259277   C478.895569,1513.782104 491.778534,1521.496460 504.736786,1529.081055   C516.036438,1535.694946 527.355957,1542.275024 538.697205,1548.817261   C551.842651,1556.400146 565.044678,1563.885254 578.178772,1571.487671   C589.355103,1577.957031 600.473206,1584.526978 611.610962,1591.062866   C629.586304,1601.611206 647.517822,1612.234863 665.539917,1622.702759   C685.234863,1634.142456 705.011230,1645.442261 724.757080,1656.794312   C725.174072,1657.034180 725.784973,1657.047241 726.080811,1657.371216   C732.736511,1664.660034 739.184692,1662.346680 746.500916,1657.883301   C766.098267,1645.927734 786.042053,1634.540405 805.834839,1622.904663   C825.048279,1611.609375 844.194702,1600.199341 863.462952,1588.998657   C883.169861,1577.543213 903.036926,1566.363281 922.744629,1554.909058   C939.636536,1545.091553 956.354187,1534.974487 973.238220,1525.143066   C988.749817,1516.110596 1004.427734,1507.364014 1019.945679,1498.342407   C1036.976929,1488.441162 1053.871704,1478.305298 1070.897461,1468.394287   C1082.361084,1461.721436 1093.978027,1455.312378 1105.473145,1448.693115   C1118.374390,1441.264038 1131.219238,1433.737305 1144.081909,1426.241577   C1157.611206,1418.357300 1171.149536,1410.488525 1184.652832,1402.559814   C1197.744629,1394.872681 1210.756104,1387.047485 1223.878662,1379.413330   C1235.486816,1372.660278 1247.220459,1366.123169 1258.860352,1359.424194   C1271.600464,1352.092163 1284.305420,1344.698853 1297.009399,1337.304321   C1310.421509,1329.497925 1323.830688,1321.686035 1337.211548,1313.826416   C1350.442871,1306.054810 1363.596802,1298.150635 1376.859985,1290.434082   C1388.448120,1283.691772 1400.156250,1277.156250 1411.783081,1270.480103   C1424.407349,1263.231445 1437.030396,1255.979492 1449.592651,1248.624512   C1456.928711,1244.329468 1461.953491,1244.724365 1467.986938,1250.376831   C1468.712402,1251.056519 1469.534058,1251.633667 1470.655518,1252.129150   C1471.000000,1255.692871 1471.000000,1259.385864 1471.000000,1263.539307   C1467.405518,1268.202026 1463.581543,1272.230957 1460.256958,1276.636719   C1447.590942,1293.421753 1435.109009,1310.345581 1422.514526,1327.184570   C1408.738281,1345.603271 1394.949707,1364.012695 1381.098389,1382.374878   C1370.352539,1396.620239 1359.460327,1410.755127 1348.711426,1424.998291   C1341.112671,1435.067139 1333.697998,1445.274780 1326.105957,1455.348755   C1314.408447,1470.870239 1302.592651,1486.302246 1290.894653,1501.823364   C1275.880371,1521.744385 1260.968384,1541.742432 1245.945679,1561.657104   C1234.322876,1577.064941 1222.574951,1592.378174 1210.925049,1607.765625   C1201.247314,1620.548096 1191.633423,1633.379028 1181.987305,1646.185425   C1169.218018,1663.138428 1156.428223,1680.076172 1143.677612,1697.043213   C1128.791504,1716.852295 1113.979370,1736.716919 1099.057495,1756.498901   C1087.335449,1772.039062 1075.447144,1787.453857 1063.720581,1802.990845   C1049.781860,1821.459106 1035.978638,1840.029541 1022.038879,1858.497070   C1010.312012,1874.032837 998.445618,1889.463257 986.693054,1904.979858   C975.154236,1920.214355 963.670471,1935.490356 952.181763,1950.762695   C941.372803,1965.131836 930.588867,1979.519653 919.794373,1993.899658   C905.889282,2012.423340 892.025574,2030.978271 878.066528,2049.461182   C867.309998,2063.703613 856.396912,2077.827393 845.621094,2092.055176   C833.105408,2108.580566 820.657837,2125.157471 808.191284,2141.719727   C797.294312,2156.196777 786.386719,2170.666016 775.530640,2185.173584   C766.020569,2197.882812 756.620972,2210.674805 747.053284,2223.340088   C745.613708,2225.245850 743.523621,2226.660156 741.867188,2228.650879   C738.307068,2229.000000 734.614197,2229.000000 730.460632,2229.000000   C720.922791,2217.149170 711.808716,2205.326416 702.777649,2193.440430   C691.121094,2178.099365 679.520325,2162.716064 667.915039,2147.335938   C656.987122,2132.853271 646.088684,2118.347900 635.169189,2103.858643   C627.761780,2094.029785 620.322205,2084.225342 612.930298,2074.385010   C602.146790,2060.028809 591.402222,2045.643311 580.624390,2031.282837   C566.626526,2012.632202 552.657471,1993.959717 538.592224,1975.359985   C525.793884,1958.435669 512.818115,1941.645264 500.043732,1924.703003   C490.506073,1912.053345 481.240936,1899.198364 471.715912,1886.539062   C460.018280,1870.992188 448.129730,1855.589111 436.408905,1840.059448   C422.460266,1821.578003 408.641907,1802.998169 394.692963,1784.516846   C382.983826,1769.002930 371.113068,1753.610840 359.416504,1738.087524   C349.783905,1725.303223 340.367279,1712.356323 330.736664,1699.570557   C319.030884,1684.029907 307.156677,1668.615967 295.436096,1653.086304   C281.487488,1634.604492 267.662170,1616.029541 253.713058,1597.548096   C242.003616,1582.033936 230.140503,1566.635620 218.444031,1551.111816   C208.811737,1538.327637 199.386612,1525.387329 189.756226,1512.601685   C178.050461,1497.060547 166.184021,1481.640747 154.463242,1466.110962   C140.514709,1447.629639 126.685295,1429.058105 112.731995,1410.580444   C101.993362,1396.359619 91.078491,1382.271973 80.360374,1368.036011   C69.759865,1353.956055 59.371113,1339.716797 48.772774,1325.635376   C38.045132,1311.382202 27.172405,1297.238281 16.367338,1283.043335   C11.472892,1276.613403 6.588437,1270.175903 1.349732,1263.870850   C1.000000,1260.638672 1.000000,1257.277466 0.999992,1253.458008  M1406.906494,1302.737671   C1389.329590,1312.914429 1371.737183,1323.064331 1354.178589,1333.272461   C1250.825806,1393.360107 1147.477539,1453.455444 1044.134399,1513.559448   C946.980286,1570.064087 849.842102,1626.596069 752.646851,1683.029907   C749.826294,1684.667725 748.790833,1686.396851 748.792603,1689.673584   C748.877625,1850.657959 748.866333,2011.642334 748.880310,2172.626709   C748.880432,2173.954346 749.079163,2175.281982 749.260132,2177.547607   C750.790527,2175.624756 751.636475,2174.609863 752.431030,2173.556396   C794.862793,2117.313477 837.297729,2061.072754 879.716553,2004.819946   C982.503906,1868.510620 1085.285156,1732.196655 1188.065308,1595.881958   C1249.633057,1514.225830 1311.205444,1432.573242 1372.746460,1350.896973   C1384.665161,1335.078613 1396.447998,1319.157959 1408.695312,1302.956299   C1408.672241,1302.717041 1408.649048,1302.477905 1408.625854,1302.238647   C1408.278320,1302.345215 1407.930786,1302.451782 1406.906494,1302.737671  M64.033516,1302.111938   C63.776531,1302.156738 63.519550,1302.201538 63.262547,1302.246460   C63.411263,1302.593140 63.559982,1302.939697 63.926861,1303.930298   C64.102722,1304.211060 64.258553,1304.506836 64.457245,1304.770386   C183.818420,1463.054443 303.187439,1621.332642 422.545074,1779.619385   C521.541870,1910.904419 620.524963,2042.199951 719.524170,2173.483154   C720.451355,2174.712646 721.518250,2175.836670 722.519897,2177.010010   C722.920471,2176.875488 723.321106,2176.740723 723.721680,2176.606201   C723.721680,2169.659912 723.721680,2162.713623 723.721680,2155.767334   C723.721680,2044.269775 723.743042,1932.772095 723.710999,1821.274536   C723.698486,1777.611084 723.547058,1733.947632 723.529846,1690.284180   C723.528625,1687.258667 723.095886,1685.148315 720.053467,1683.390381   C679.109985,1659.735107 638.266785,1635.906372 597.390869,1612.134155   C440.796051,1521.063232 284.201904,1429.991333 127.597435,1338.937134   C106.587296,1326.721191 85.519363,1314.604736 64.033516,1302.111938  z"/>
<path fill="transparent" opacity="1.000000" stroke="none" d=" M1025.468628,2229.000000   C1025.000000,2169.220215 1025.000000,2109.440430 1025.000000,2049.000000   C1173.442627,2049.000000 1321.752686,2049.000000 1470.531372,2049.000000   C1471.000000,2108.958008 1471.000000,2168.916260 1471.000000,2229.000000   C1322.645752,2229.000000 1174.291504,2229.000000 1025.468628,2229.000000  z"/>
<path fill="#B8FBF6" opacity="1.000000" stroke="none" d=" M748.873230,58.137405   C750.316223,60.122574 751.869812,62.037205 753.186523,64.102890   C884.136902,269.554230 1015.070557,475.016174 1146.002563,680.479248   C1237.467041,824.008423 1328.927856,967.539917 1420.387207,1111.072266   C1421.702637,1113.136597 1422.979370,1115.225708 1424.851807,1118.229858   C1422.765991,1117.582764 1421.691772,1117.364380 1420.713745,1116.929688   C1293.756226,1060.488403 1166.807129,1004.028259 1039.854492,947.575989   C944.831482,905.321899 849.818054,863.046265 754.738037,820.920776   C750.065002,818.850342 748.172363,816.556091 748.176025,811.114502   C748.343567,562.291382 748.321411,313.468109 748.322998,64.644867   C748.322998,62.811783 748.346069,60.978699 748.518188,58.705460   C748.677979,58.265301 748.873230,58.137409 748.873230,58.137405  z"/>
<path fill="#EECBC0" opacity="1.000000" stroke="none" d=" M723.103210,58.660778   C723.134827,60.659607 723.194092,62.658436 723.194153,64.657265   C723.198364,313.645355 723.181946,562.633423 723.316467,811.621460   C723.319092,816.497742 721.977173,818.861572 717.442993,820.871765   C582.820068,880.553833 448.262421,940.383118 313.705383,1000.213684   C226.281693,1039.086548 138.875320,1077.998169 51.456875,1116.882690   C50.463253,1117.324707 49.411999,1117.636963 46.881897,1118.557739   C272.372162,764.704529 497.038940,412.143707 722.119995,59.186859   C722.723999,58.747494 722.913574,58.704136 723.103210,58.660778  z"/>
<path fill="#CAB3F5" opacity="1.000000" stroke="none" d=" M1149.268799,1023.695618   C1242.944336,1065.361450 1336.280518,1106.854980 1430.535156,1148.756836   C1203.056885,1278.186768 976.380188,1407.160522 748.845398,1536.622559   C748.845398,1305.879883 748.845398,1076.106567 748.845398,845.662720   C759.753113,850.508606 770.042847,855.077637 780.330750,859.650879   C876.166870,902.252686 972.003052,944.854309 1067.838135,987.458435   C1094.870483,999.475891 1121.899170,1011.501465 1149.268799,1023.695618  z"/>
<path fill="#87A9F0" opacity="1.000000" stroke="none" d=" M155.232880,1098.243164   C203.140305,1076.956665 250.708984,1055.844360 298.262817,1034.698730   C335.182648,1018.281677 372.075684,1001.804565 408.995453,985.387451   C459.743011,962.821594 510.510925,940.301636 561.257935,917.734497   C601.521301,899.829407 641.767517,881.885437 682.019104,863.953918   C694.626221,858.337585 707.223328,852.698669 719.836548,847.096008   C720.699036,846.712891 721.658569,846.548340 722.879272,846.192932   C722.879272,1076.139771 722.879272,1305.723022 722.879272,1536.438965   C495.650970,1407.153931 268.983246,1278.187988 41.486885,1148.750488   C79.933937,1131.680786 117.410828,1115.041870 155.232880,1098.243164  z"/>
<path fill="#716EC0" opacity="1.000000" stroke="none" d=" M722.970398,58.490273   C722.913574,58.704136 722.723999,58.747494 722.253662,58.870316   C722.261169,58.739769 722.549377,58.529766 722.970398,58.490273  z"/>
<path fill="#7EA9DE" opacity="1.000000" stroke="none" d=" M748.854431,57.920086   C748.873230,58.137409 748.677979,58.265301 748.562378,58.256088   C748.576416,58.065502 748.705994,57.884132 748.854431,57.920086  z"/>
<path fill="#EECBC0" opacity="1.000000" stroke="none" d=" M64.478188,1302.442139   C85.519363,1314.604736 106.587296,1326.721191 127.597435,1338.937134   C284.201904,1429.991333 440.796051,1521.063232 597.390869,1612.134155   C638.266785,1635.906372 679.109985,1659.735107 720.053467,1683.390381   C723.095886,1685.148315 723.528625,1687.258667 723.529846,1690.284180   C723.547058,1733.947632 723.698486,1777.611084 723.710999,1821.274536   C723.743042,1932.772095 723.721680,2044.269775 723.721680,2155.767334   C723.721680,2162.713623 723.721680,2169.659912 723.721680,2176.606201   C723.321106,2176.740723 722.920471,2176.875488 722.519897,2177.010010   C721.518250,2175.836670 720.451355,2174.712646 719.524170,2173.483154   C620.524963,2042.199951 521.541870,1910.904419 422.545074,1779.619385   C303.187439,1621.332642 183.818420,1463.054443 64.457245,1304.770386   C64.258553,1304.506836 64.102722,1304.211060 64.017357,1303.403809   C64.231308,1302.732300 64.354752,1302.587280 64.478188,1302.442139  z"/>
<path fill="#C8B2F5" opacity="1.000000" stroke="none" d=" M1408.293457,1303.284546   C1396.447998,1319.157959 1384.665161,1335.078613 1372.746460,1350.896973   C1311.205444,1432.573242 1249.633057,1514.225830 1188.065308,1595.881958   C1085.285156,1732.196655 982.503906,1868.510620 879.716553,2004.819946   C837.297729,2061.072754 794.862793,2117.313477 752.431030,2173.556396   C751.636475,2174.609863 750.790527,2175.624756 749.260132,2177.547607   C749.079163,2175.281982 748.880432,2173.954346 748.880310,2172.626709   C748.866333,2011.642334 748.877625,1850.657959 748.792603,1689.673584   C748.790833,1686.396851 749.826294,1684.667725 752.646851,1683.029907   C849.842102,1626.596069 946.980286,1570.064087 1044.134399,1513.559448   C1147.477539,1453.455444 1250.825806,1393.360107 1354.178589,1333.272461   C1371.737183,1323.064331 1389.329590,1312.914429 1407.419800,1302.832031   C1408.053223,1303.045776 1408.173340,1303.165161 1408.293457,1303.284546  z"/>
<path fill="#EECBC0" opacity="1.000000" stroke="none" d=" M63.908279,1303.081909   C63.559982,1302.939697 63.411263,1302.593140 63.262558,1302.246460   C63.519550,1302.201538 63.776531,1302.156738 64.255859,1302.277100   C64.354752,1302.587280 64.231308,1302.732300 63.908279,1303.081909  z"/>
<path fill="#C8B2F5" opacity="1.000000" stroke="none" d=" M1407.758179,1302.742432   C1407.930786,1302.451782 1408.278320,1302.345215 1408.625854,1302.238647   C1408.649048,1302.477905 1408.672241,1302.717041 1408.494385,1303.120361   C1408.173340,1303.165161 1408.053223,1303.045776 1407.758179,1302.742432  z"/>
</svg>